<svg width="74" height="39" viewBox="0 0 74 39" fill="none" xmlns="http://www.w3.org/2000/svg">
<path d="M5.99407 38.5442C16.3119 39.3604 26.773 38.8061 37.1522 38.9279C45.3431 39.068 53.9021 37.6732 59.9353 34.2381C67.6251 29.9441 70.9383 23.6462 72.3393 17.592C73.5357 12.3357 73.4641 6.94537 71.4496 1.76823C70.9383 1.07388 71.0508 -0.19909 69.2409 0.0262664C66.6946 2.03621 65.1096 4.44207 62.1544 6.2693C57.1539 9.61921 49.7709 11.3551 42.4185 11.8728C32.5097 12.6037 22.5395 11.751 12.6204 11.5561C9.18455 11.483 5.09419 11.8302 3.14106 13.7366C0.114213 16.9464 0.594846 20.7836 0.380103 24.3345C0.502812 27.9828 -0.407312 31.6373 0.226689 35.2735C0.400528 37.0946 3.12061 38.3249 5.99407 38.5442ZM18.3366 28.8112C16.179 27.1606 17.2323 24.7182 17.3959 22.7631C17.7845 20.8688 21.5066 21.1795 23.8279 21.1856C29.81 21.4718 35.8944 20.7592 41.8152 21.4657C46.3248 22.1662 45.8237 26.1678 42.6026 27.5626C38.6656 29.1827 33.5731 29.0365 29.0124 29.1766C25.464 29.0914 21.7316 29.5055 18.3366 28.8112Z" fill="#F58220"/>
</svg>
